<?xml version="1.0" encoding="UTF-8"?>
<svg id="Layer_1" data-name="Layer 1" xmlns="http://www.w3.org/2000/svg" viewBox="0 0 58.48 60.8">
  <defs>
    <style>
      .cls-1 {
        fill: #00bbc9;
        stroke-width: 0px;
      }
    </style>
  </defs>
  <path className="cls-1" d="m28.193,25.601c.181-1.779-.33-3.475-.584-5.203-.123-.834-.105-1.688-.168-2.532-.015-.2-.049-.518-.161-.562-.167-.066-.446.008-.616.117-1.153.74-1.948,1.755-2.033,3.155-.054.888.058,1.788.108,2.682.017.311.124.626.096.93-.043.459-.389.649-.767.43-.417-.242-.815-.571-1.122-.944-2.38-2.898-3.221-6.148-2.188-9.816.762-2.707,2.311-4.953,4.165-6.994,2.371-2.611,5.06-4.836,8.272-6.366.363-.173.735-.347,1.122-.45.595-.158.871.065.784.693-.123.887-.382,1.755-.493,2.643-.128,1.02-.191,2.051-.228,3.08-.109,3.093-.09,6.195-.311,9.28-.273,3.812-1.324,7.415-3.556,10.591-.41.584-.874,1.139-1.38,1.641-.176.175-.578.243-.828.175-.149-.04-.285-.44-.28-.675.013-.626.106-1.25.168-1.875Z"/>
  <path className="cls-1" d="m47.601,27.258c-.478-.141-.759-.289-1.044-.298-2.822-.086-5.633-.49-8.47-.125-1.609.207-3.194.438-4.729.988-.387.138-.844.078-1.269.109.146-.401.224-.845.45-1.195.582-.904,1.157-1.829,1.863-2.632,2.069-2.354,4.781-3.41,7.846-3.668,2.037-.171,4.02.07,5.979.676,1.499.464,3.031.822,4.554,1.201,1.323.329,2.651.363,4.004.11.541-.101,1.128.043,1.694.075-.151.492-.287.991-.46,1.476-.12.337-.305.65-.435.985-2.076,5.374-6.164,8.222-11.675,9.215-4.555.821-9.031.386-13.406-1.097-.59-.2-1.154-.489-1.705-.785-.161-.086-.351-.369-.315-.506.042-.158.309-.342.495-.361.889-.092,1.794-.25,2.673-.168,2.189.204,4.287-.216,6.38-.735,1.618-.401,3.167-.954,4.602-1.845.865-.537,1.844-.892,2.965-1.421Z"/>
  <path className="cls-1" d="m32.911,48.474c-.079,1.354-.342,2.853-1.016,4.247-.98,2.026-2.088,3.987-3.643,5.628-.795.839-1.75,1.535-2.675,2.24-.5.381-.793.245-.936-.412-.133-.61-.21-1.241-.227-1.865-.047-1.684-.438-3.269-1.115-4.814-.989-2.258-1.979-4.522-2.817-6.838-1.092-3.02-.929-6.068.099-9.102.756-2.234,2.237-3.872,4.135-5.145.561-.376,1.317-.557,2.004-.626.777-.078,1.152.413,1.041,1.19-.063.439-.175.894-.374,1.286-1.043,2.045-1.245,4.197-.843,6.419.336,1.852.721,3.696,1.113,5.537.061.286.275.54.418.808.218-.254.486-.48.644-.768.258-.47.43-.986.665-1.47.156-.321.325-.646.546-.924.455-.575.818-.595,1.31-.014,1.081,1.275,1.645,2.762,1.673,4.622Z"/>
  <path className="cls-1" d="m5.379,11.795c2.676.228,5.318.708,7.757,1.965,1.339.69,2.476,1.627,3.247,2.952.903,1.552,1.841,3.087,2.683,4.672.438.825.726,1.734,1.04,2.62.213.602.041,1.153-.403,1.61-.448.461-.811.493-1.266.022-.339-.351-.571-.804-.892-1.176-.701-.811-1.392-1.636-2.161-2.38-.338-.327-.836-.52-1.294-.68-.428-.15-.766.145-.709.547.074.512.227,1.08.535,1.477.461.593,1.031,1.141,1.654,1.56,1.527,1.026,3.111,1.968,4.674,2.94.419.261.867.481,1.265.769.263.19.463.468.691.707-.341.061-.693.211-1.02.168-1.467-.191-2.966-.3-4.381-.696-1.893-.53-3.748-1.229-5.569-1.979-2.246-.925-3.744-2.625-4.421-4.958-.5-1.721-.865-3.48-1.286-5.224-.147-.611-.265-1.229-.423-1.836-.218-.837-.545-1.613-1.237-2.193-.147-.124-.211-.347-.314-.524.197-.096.386-.245.594-.278.397-.062.804-.059,1.237-.084Z"/>
  <path className="cls-1" d="m1.833,39.516c-.528-.062-1.052-.227-1.554-.409-.289-.105-.412-.354-.08-.602.072-.054.142-.113.222-.152,2.091-1.009,3.846-2.491,5.497-4.077,2.041-1.961,4.436-2.999,7.237-3.155,1.344-.075,2.688-.156,4.033-.168.299-.003.6.273.9.421-.201.272-.346.638-.613.798-.691.413-1.443.722-2.155,1.102-.177.094-.293.302-.437.458.195.049.4.166.582.137,1.372-.218,2.74-.459,4.107-.705.308-.055.604-.196.912-.228.24-.025.491.06.736.095-.083.203-.119.45-.258.601-.486.526-.948,1.105-1.527,1.509-1.691,1.179-3.398,2.342-5.166,3.4-1.659.993-3.572,1.138-5.453,1.285-.803.063-1.615.01-2.423.01-.003.042-3.045-.142-4.558-.32Z"/>
  <path className="cls-1" d="m38.466,47.298c-1.444-.486-2.583-1.43-3.324-2.8-.661-1.223-1.333-2.44-1.98-3.67-.144-.274-.239-.587-.286-.894-.031-.198,0-.494.126-.603.118-.101.436-.082.601.005.514.273.991.614,1.494.908.58.34,1.165.672,1.766.973.124.062.403.03.467-.06.074-.106.055-.384-.037-.48-.521-.549-1.02-1.147-1.631-1.577-1.026-.722-2.131-1.33-3.202-1.987-.229-.141-.473-.267-.675-.441-.115-.1-.157-.283-.232-.429.12-.048.242-.142.359-.136,3.158.149,6.172.885,8.63,2.926.823.683,1.242,1.95,1.636,3.027.398,1.085.483,2.281.806,3.398.219.758.558,1.497.951,2.183.23.401.255.544-.218.59-.312.03-.626.036-.939.053-.016.052-2.921-.518-4.314-.986Z"/>
</svg>